<svg version="1.1" viewBox="0.0 0.0 480.0 480.0" fill="none" stroke="none" stroke-linecap="square" stroke-miterlimit="10" xmlns:xlink="http://www.w3.org/1999/xlink" xmlns="http://www.w3.org/2000/svg" class="animate-svg"><g clip-path="url(#p.0)"><path fill="#ffffff" d="m0 240.0l0 0c0 -132.54834 107.45166 -240.0 240.0 -240.0l0 0c63.651947 0 124.6969 25.285643 169.70563 70.29437c45.008728 45.008728 70.29437 106.053665 70.29437 169.70563l0 0c0 132.54834 -107.45166 240.0 -240.0 240.0l0 0c-132.54834 0 -240.0 -107.45166 -240.0 -240.0z" fill-rule="evenodd" style="stroke-dasharray: 1508.12; stroke-dashoffset: 1508.12; animation-delay: 0.333333s; animation-duration: 1.96929s;"></path><defs><style>.animate-svg path{-webkit-animation:draw ease-in-out forwards;animation:draw ease-in-out forwards;stroke:#000}.animate-svg{-webkit-animation:fillopacity 3 ease-in-out forwards;animation:fillopacity 3s ease-in-out forwards}@-webkit-keyframes draw{100%{stroke-dashoffset:0}}@keyframes draw{100%{stroke-dashoffset:0}}@-webkit-keyframes fillopacity{0%,70%{fill-opacity:0;stroke-width:0.5%}100%{fill-opacity:1;stroke-width:0}}@keyframes fillopacity{0%,70%{fill-opacity:0;stroke-width:0.5%}100%{fill-opacity:1;stroke-width:0}}</style><linearGradient id="p.1" gradientUnits="userSpaceOnUse" gradientTransform="matrix(11.045175833944697 0.0 0.0 11.045175833944697 0.0 0.0)" spreadMethod="pad" x1="4.1979898542438185" y1="27.251562364381602" x2="15.243165688188514" y2="27.251562364381602"><stop offset="0.0" stop-color="#f64040"></stop><stop offset="1.0" stop-color="#ffb217"></stop></linearGradient></defs><path fill="url(#p.1)" d="m133.50746 196.43057l0 34.85591l-17.427979 0l0 17.427948l-34.855972 0l0 -52.28386zm-87.13992 -17.427948l0 121.99567l34.855972 0l0 -34.855896l17.427986 0l0 17.427948l17.427986 0l0 17.427948l52.28395 0l0 -17.427948l-17.427979 0l0 -17.427948l-17.427994 0l0 -17.427963l34.855972 0l0 -52.28386l-17.427979 0l0 -17.427948z" fill-rule="evenodd" style="stroke-dasharray: 836.542; stroke-dashoffset: 836.542; animation-delay: 0.5s; animation-duration: 1.49146s;"></path><defs><linearGradient id="p.2" gradientUnits="userSpaceOnUse" gradientTransform="matrix(10.861505301206481 0.0 0.0 10.861505301206481 0.0 0.0)" spreadMethod="pad" x1="16.850851330533366" y1="27.527155326317985" x2="27.712356631739848" y2="27.527155326317985"><stop offset="0.0" stop-color="#3cff4a"></stop><stop offset="1.0" stop-color="#2bffe5"></stop></linearGradient></defs><path fill="url(#p.2)" d="m216.73198 181.01431l0 16.85315l-16.85318 0l0 16.85315l-16.85318 0l0 50.55945l16.85318 0l0 16.85315l16.85318 0l0 16.85315l84.265915 0l0 -67.4126l-50.55954 0l0 16.85315l16.85318 0l0 33.7063l-33.706375 0l0 -16.85315l-16.85318 0l0 -50.55945l16.85318 0l0 -16.85315l67.412735 0l0 -16.85315z" fill-rule="evenodd" style="stroke-dasharray: 775.246; stroke-dashoffset: 775.246; animation-delay: 0.666667s; animation-duration: 1.47s;"></path><defs><linearGradient id="p.3" gradientUnits="userSpaceOnUse" gradientTransform="matrix(10.861504357265026 0.0 0.0 10.861504357265026 0.0 0.0)" spreadMethod="pad" x1="29.06223313709356" y1="27.527157718622238" x2="39.92373749435858" y2="27.527157718622238"><stop offset="0.0" stop-color="#2e56ff"></stop><stop offset="1.0" stop-color="#774cff"></stop></linearGradient></defs><path fill="url(#p.3)" d="m399.9255 197.86746l0 33.7063l-50.55957 0l0 -33.7063zm0 50.55945l0 33.7063l-50.55957 0l0 -33.7063zm-84.26593 -67.4126l0 117.972046l101.11911 0l0 -16.85315l16.85318 0l0 -33.7063l-16.85318 0l0 -16.85315l16.85318 0l0 -33.7063l-16.85318 0l0 -16.85315z" fill-rule="evenodd" style="stroke-dasharray: 842.658; stroke-dashoffset: 842.658; animation-delay: 0.833333s; animation-duration: 1.49397s;"></path></g></svg>